<svg xmlns="http://www.w3.org/2000/svg" viewBox="0 0 62.67 62.67"><title>Asset 1</title><g id="Layer_2" data-name="Layer 2"><g id="Layer_1-2" data-name="Layer 1"><g id="_000000ff" data-name="#000000ff"><path d="M20.33,9.93h1c2.58.43,4.73,2,7,3.24,2.5,1.47,5,2.88,7.56,4.29-3.94-.75-8.59.17-10.92,3.7-3.24,4.69-2,11.56,2.12,15.31,1.78,1.61,4.29,1.41,6.49,1.18a13.78,13.78,0,0,1-12.08.83c-3.5-1.43-6.22-5-6-8.88.08-4.73-.08-9.47.08-14.19C15.65,12.74,17.55,10.12,20.33,9.93Z"/><path d="M28.86,19.68c3.2-1.75,7.56-2.12,10.68,0,3.63,2.15,7.31,4.21,10.94,6.37,1.86,1.12,3.63,3,3.6,5.26s-1.71,4.16-3.57,5.28C47,38.76,43.27,40.71,39.77,43c2-2.21,3.59-5,3.44-8.11.07-4.28-3.32-7.86-7.19-9.21-2.76-1-6.14-1.45-8.69.3-1.46.93-2.12,2.6-2.88,4.07C24.15,26.21,25.31,21.73,28.86,19.68Z"/><path d="M35.67,26.65c2.53,1.47,4.93,3.65,5.67,6.58a10.94,10.94,0,0,1-5.91,12.15c-4.69,2.36-8.88,5.85-14,7.36h-1c-2.82-.07-4.78-2.72-4.91-5.38-.2-4.47,0-9-.13-13.43a14.06,14.06,0,0,0,3.45,4.67c5.23,4.28,14.25,3.2,17.7-2.82A8,8,0,0,0,35.67,26.65Z"/></g><circle cx="31.33" cy="31.33" r="29.83" fill="none" stroke="#050505" stroke-miterlimit="10" stroke-width="3"/></g></g></svg>